<svg xmlns="http://www.w3.org/2000/svg" width="512" height="512" enable-background="new 0 0 512 512" viewBox="0 0 512 512"><path d="M485.841,494.293c-2.304,0-4.606-0.879-6.364-2.636L20.459,32.64c-3.515-3.515-3.515-9.213,0-12.728
				c3.515-3.515,9.213-3.515,12.728,0l459.018,459.017c3.515,3.515,3.515,9.214,0,12.729
				C490.447,493.414,488.145,494.293,485.841,494.293z"/><path d="M26.823,494.293c-2.303,0-4.606-0.878-6.363-2.636c-3.515-3.514-3.516-9.213-0.001-12.728L479.477,19.829
				c3.514-3.516,9.212-3.516,12.728-0.002c3.515,3.515,3.516,9.213,0.001,12.729L33.188,491.656
				C31.431,493.414,29.126,494.293,26.823,494.293z"/></svg>